<mxfile host="app.diagrams.net" agent="Mozilla/5.0 (Windows NT 10.0; Win64; x64) AppleWebKit/537.36 (KHTML, like Gecko) Chrome/135.0.0.0 Safari/537.36 Edg/135.0.0.0" version="26.2.14">
  <diagram name="第 1 页" id="Q64KBp28jFZrs27-sYgT">
    <mxGraphModel dx="1602" dy="1198" grid="1" gridSize="10" guides="1" tooltips="1" connect="1" arrows="1" fold="1" page="1" pageScale="1" pageWidth="827" pageHeight="1169" math="0" shadow="0">
      <root>
        <mxCell id="0" />
        <mxCell id="1" parent="0" />
        <mxCell id="mAyNxIO1zu4g27fKkFHF-3" value="" style="edgeStyle=orthogonalEdgeStyle;rounded=0;orthogonalLoop=1;jettySize=auto;html=1;" edge="1" parent="1" source="mAyNxIO1zu4g27fKkFHF-1" target="mAyNxIO1zu4g27fKkFHF-2">
          <mxGeometry relative="1" as="geometry" />
        </mxCell>
        <mxCell id="mAyNxIO1zu4g27fKkFHF-7" value="" style="edgeStyle=orthogonalEdgeStyle;rounded=0;orthogonalLoop=1;jettySize=auto;html=1;" edge="1" parent="1" source="mAyNxIO1zu4g27fKkFHF-1" target="mAyNxIO1zu4g27fKkFHF-6">
          <mxGeometry relative="1" as="geometry" />
        </mxCell>
        <mxCell id="mAyNxIO1zu4g27fKkFHF-8" value="ON" style="edgeLabel;html=1;align=center;verticalAlign=middle;resizable=0;points=[];" vertex="1" connectable="0" parent="mAyNxIO1zu4g27fKkFHF-7">
          <mxGeometry x="0.0811" y="3" relative="1" as="geometry">
            <mxPoint as="offset" />
          </mxGeometry>
        </mxCell>
        <mxCell id="mAyNxIO1zu4g27fKkFHF-1" value="bt_sbc_player_more_data" style="rounded=0;whiteSpace=wrap;html=1;" vertex="1" parent="1">
          <mxGeometry x="118" y="140" width="256" height="60" as="geometry" />
        </mxCell>
        <mxCell id="mAyNxIO1zu4g27fKkFHF-5" value="" style="edgeStyle=orthogonalEdgeStyle;rounded=0;orthogonalLoop=1;jettySize=auto;html=1;" edge="1" parent="1" source="mAyNxIO1zu4g27fKkFHF-2" target="mAyNxIO1zu4g27fKkFHF-4">
          <mxGeometry relative="1" as="geometry" />
        </mxCell>
        <mxCell id="mAyNxIO1zu4g27fKkFHF-2" value="a2dp_audio_playback_handler" style="whiteSpace=wrap;html=1;rounded=0;" vertex="1" parent="1">
          <mxGeometry x="140" y="260" width="212" height="60" as="geometry" />
        </mxCell>
        <mxCell id="mAyNxIO1zu4g27fKkFHF-4" value="audio_decoder_decode_frame" style="whiteSpace=wrap;html=1;rounded=0;" vertex="1" parent="1">
          <mxGeometry x="141" y="360" width="210" height="60" as="geometry" />
        </mxCell>
        <mxCell id="mAyNxIO1zu4g27fKkFHF-6" value="&lt;div style=&quot;color: rgb(204, 204, 204); background-color: rgb(31, 31, 31); font-family: Consolas, &amp;quot;Courier New&amp;quot;, monospace; font-size: 14px; line-height: 19px; white-space: pre;&quot;&gt;&lt;span style=&quot;color: #dcdcaa;&quot;&gt;bt_sbc_player&lt;/span&gt;&lt;/div&gt;" style="whiteSpace=wrap;html=1;rounded=0;" vertex="1" parent="1">
          <mxGeometry x="-160" y="140" width="120" height="60" as="geometry" />
        </mxCell>
      </root>
    </mxGraphModel>
  </diagram>
</mxfile>
